# xmcd
#
# Track frame offsets: 
#        150
#        9478
#        19987
#        32841
#        43171
#        52484
#        58861
#        73130
#        83632
#        96446
#        104467
#        115124
#        127552
#        143838
#        155272
#
# Disc length: 2150 seconds
#
# Revision: 0
# Processed by: cddbd v1.5.2PL0 Copyright (c) Steve Scherf et al.
# Submitted via: ExactAudioCopy v0.99pb4
#
DISCID=cf08640f
DTITLE=Johnny Cash - Children'S Album
DYEAR=1975
DGENRE=Country
TTITLE0=Nasty Dan
TTITLE1=One And One Makes Two
TTITLE2=I Got A Boy And His Name Is John
TTITLE3=Little Magic Glasses
TTITLE4=Miss Tara
TTITLE5=Dinosaur Song
TTITLE6=Tiger Whitehead
TTITLE7=There's A Bear In The Woods
TTITLE8=Call Of The Wild
TTITLE9=Little Green Fountain
TTITLE10=Old Shep
TTITLE11=(The) Timber Man
TTITLE12=Grandfather's Clock
TTITLE13=Ah Bos Cee Dah
TTITLE14=Why Is A Fire Engine Red
EXTD=
EXTT0=
EXTT1=
EXTT2=
EXTT3=
EXTT4=
EXTT5=
EXTT6=
EXTT7=
EXTT8=
EXTT9=
EXTT10=
EXTT11=
EXTT12=
EXTT13=
EXTT14=
PLAYORDER=
